<mxfile host="app.diagrams.net" agent="Mozilla/5.0 (Windows NT 10.0; Win64; x64) AppleWebKit/537.36 (KHTML, like Gecko) Chrome/130.0.0.0 Safari/537.36 Edg/130.0.0.0" version="24.8.4">
  <diagram name="Page-1" id="BeZhBhm22tUuPhbJwiCz">
    <mxGraphModel dx="1402" dy="663" grid="0" gridSize="10" guides="1" tooltips="1" connect="1" arrows="1" fold="1" page="0" pageScale="1" pageWidth="827" pageHeight="1169" math="0" shadow="0">
      <root>
        <mxCell id="0" />
        <mxCell id="1" parent="0" />
        <mxCell id="caD48K6P7R1hyJkPbGRi-3" value="" style="edgeStyle=orthogonalEdgeStyle;rounded=0;sketch=1;hachureGap=4;jiggle=2;curveFitting=1;orthogonalLoop=1;jettySize=auto;html=1;fontFamily=Architects Daughter;fontSource=https%3A%2F%2Ffonts.googleapis.com%2Fcss%3Ffamily%3DArchitects%2BDaughter;" edge="1" parent="1" source="caD48K6P7R1hyJkPbGRi-1" target="caD48K6P7R1hyJkPbGRi-2">
          <mxGeometry relative="1" as="geometry" />
        </mxCell>
        <mxCell id="caD48K6P7R1hyJkPbGRi-1" value="spot attempt (STI over FTI)" style="rounded=0;whiteSpace=wrap;html=1;sketch=1;hachureGap=4;jiggle=2;curveFitting=1;fontFamily=Architects Daughter;fontSource=https%3A%2F%2Ffonts.googleapis.com%2Fcss%3Ffamily%3DArchitects%2BDaughter;" vertex="1" parent="1">
          <mxGeometry x="204" y="51" width="120" height="60" as="geometry" />
        </mxCell>
        <mxCell id="caD48K6P7R1hyJkPbGRi-5" value="" style="edgeStyle=orthogonalEdgeStyle;rounded=0;sketch=1;hachureGap=4;jiggle=2;curveFitting=1;orthogonalLoop=1;jettySize=auto;html=1;fontFamily=Architects Daughter;fontSource=https%3A%2F%2Ffonts.googleapis.com%2Fcss%3Ffamily%3DArchitects%2BDaughter;" edge="1" parent="1" source="caD48K6P7R1hyJkPbGRi-2" target="caD48K6P7R1hyJkPbGRi-4">
          <mxGeometry relative="1" as="geometry" />
        </mxCell>
        <mxCell id="caD48K6P7R1hyJkPbGRi-6" value="ONLINE" style="edgeLabel;html=1;align=center;verticalAlign=middle;resizable=0;points=[];sketch=1;hachureGap=4;jiggle=2;curveFitting=1;fontFamily=Architects Daughter;fontSource=https%3A%2F%2Ffonts.googleapis.com%2Fcss%3Ffamily%3DArchitects%2BDaughter;" vertex="1" connectable="0" parent="caD48K6P7R1hyJkPbGRi-5">
          <mxGeometry x="-0.23" y="3" relative="1" as="geometry">
            <mxPoint x="-2" y="-5" as="offset" />
          </mxGeometry>
        </mxCell>
        <mxCell id="caD48K6P7R1hyJkPbGRi-8" value="" style="edgeStyle=orthogonalEdgeStyle;rounded=0;sketch=1;hachureGap=4;jiggle=2;curveFitting=1;orthogonalLoop=1;jettySize=auto;html=1;fontFamily=Architects Daughter;fontSource=https%3A%2F%2Ffonts.googleapis.com%2Fcss%3Ffamily%3DArchitects%2BDaughter;" edge="1" parent="1" source="caD48K6P7R1hyJkPbGRi-2" target="caD48K6P7R1hyJkPbGRi-7">
          <mxGeometry relative="1" as="geometry" />
        </mxCell>
        <mxCell id="caD48K6P7R1hyJkPbGRi-9" value="POS" style="edgeLabel;html=1;align=center;verticalAlign=middle;resizable=0;points=[];sketch=1;hachureGap=4;jiggle=2;curveFitting=1;fontFamily=Architects Daughter;fontSource=https%3A%2F%2Ffonts.googleapis.com%2Fcss%3Ffamily%3DArchitects%2BDaughter;" vertex="1" connectable="0" parent="caD48K6P7R1hyJkPbGRi-8">
          <mxGeometry x="-0.245" y="2" relative="1" as="geometry">
            <mxPoint x="-4" y="-13" as="offset" />
          </mxGeometry>
        </mxCell>
        <mxCell id="caD48K6P7R1hyJkPbGRi-2" value="STI channel" style="rhombus;whiteSpace=wrap;html=1;fontFamily=Architects Daughter;rounded=0;sketch=1;hachureGap=4;jiggle=2;curveFitting=1;fontSource=https%3A%2F%2Ffonts.googleapis.com%2Fcss%3Ffamily%3DArchitects%2BDaughter;" vertex="1" parent="1">
          <mxGeometry x="224" y="288" width="80" height="80" as="geometry" />
        </mxCell>
        <mxCell id="caD48K6P7R1hyJkPbGRi-11" value="" style="edgeStyle=orthogonalEdgeStyle;rounded=0;sketch=1;hachureGap=4;jiggle=2;curveFitting=1;orthogonalLoop=1;jettySize=auto;html=1;fontFamily=Architects Daughter;fontSource=https%3A%2F%2Ffonts.googleapis.com%2Fcss%3Ffamily%3DArchitects%2BDaughter;entryX=0;entryY=0.5;entryDx=0;entryDy=0;" edge="1" parent="1" source="caD48K6P7R1hyJkPbGRi-4" target="caD48K6P7R1hyJkPbGRi-15">
          <mxGeometry relative="1" as="geometry">
            <mxPoint x="592" y="328" as="targetPoint" />
          </mxGeometry>
        </mxCell>
        <mxCell id="caD48K6P7R1hyJkPbGRi-12" value="YES" style="edgeLabel;html=1;align=center;verticalAlign=middle;resizable=0;points=[];sketch=1;hachureGap=4;jiggle=2;curveFitting=1;fontFamily=Architects Daughter;fontSource=https%3A%2F%2Ffonts.googleapis.com%2Fcss%3Ffamily%3DArchitects%2BDaughter;" vertex="1" connectable="0" parent="caD48K6P7R1hyJkPbGRi-11">
          <mxGeometry x="-0.2688" y="3" relative="1" as="geometry">
            <mxPoint y="-6" as="offset" />
          </mxGeometry>
        </mxCell>
        <mxCell id="caD48K6P7R1hyJkPbGRi-14" value="" style="edgeStyle=orthogonalEdgeStyle;rounded=0;sketch=1;hachureGap=4;jiggle=2;curveFitting=1;orthogonalLoop=1;jettySize=auto;html=1;fontFamily=Architects Daughter;fontSource=https%3A%2F%2Ffonts.googleapis.com%2Fcss%3Ffamily%3DArchitects%2BDaughter;entryX=0.5;entryY=0;entryDx=0;entryDy=0;" edge="1" parent="1" source="caD48K6P7R1hyJkPbGRi-4" target="caD48K6P7R1hyJkPbGRi-23">
          <mxGeometry relative="1" as="geometry">
            <mxPoint x="430" y="456" as="targetPoint" />
          </mxGeometry>
        </mxCell>
        <mxCell id="caD48K6P7R1hyJkPbGRi-22" value="NO" style="edgeLabel;html=1;align=center;verticalAlign=middle;resizable=0;points=[];sketch=1;hachureGap=4;jiggle=2;curveFitting=1;fontFamily=Architects Daughter;fontSource=https%3A%2F%2Ffonts.googleapis.com%2Fcss%3Ffamily%3DArchitects%2BDaughter;" vertex="1" connectable="0" parent="caD48K6P7R1hyJkPbGRi-14">
          <mxGeometry x="-0.35" y="-1" relative="1" as="geometry">
            <mxPoint x="12" as="offset" />
          </mxGeometry>
        </mxCell>
        <mxCell id="caD48K6P7R1hyJkPbGRi-4" value="FTI status&amp;nbsp;&lt;br&gt;is&lt;br&gt;&amp;nbsp;VALIDATED" style="rhombus;whiteSpace=wrap;html=1;fontFamily=Architects Daughter;rounded=0;sketch=1;hachureGap=4;jiggle=2;curveFitting=1;fontSource=https%3A%2F%2Ffonts.googleapis.com%2Fcss%3Ffamily%3DArchitects%2BDaughter;" vertex="1" parent="1">
          <mxGeometry x="390" y="288" width="80" height="80" as="geometry" />
        </mxCell>
        <mxCell id="caD48K6P7R1hyJkPbGRi-7" value="FTI status&amp;nbsp;&lt;br&gt;is&lt;br&gt;&amp;nbsp;VALIDATED" style="rhombus;whiteSpace=wrap;html=1;fontFamily=Architects Daughter;rounded=0;sketch=1;hachureGap=4;jiggle=2;curveFitting=1;fontSource=https%3A%2F%2Ffonts.googleapis.com%2Fcss%3Ffamily%3DArchitects%2BDaughter;" vertex="1" parent="1">
          <mxGeometry x="64" y="288" width="80" height="80" as="geometry" />
        </mxCell>
        <mxCell id="caD48K6P7R1hyJkPbGRi-17" value="" style="edgeStyle=orthogonalEdgeStyle;rounded=0;sketch=1;hachureGap=4;jiggle=2;curveFitting=1;orthogonalLoop=1;jettySize=auto;html=1;fontFamily=Architects Daughter;fontSource=https%3A%2F%2Ffonts.googleapis.com%2Fcss%3Ffamily%3DArchitects%2BDaughter;" edge="1" parent="1" source="caD48K6P7R1hyJkPbGRi-15" target="caD48K6P7R1hyJkPbGRi-16">
          <mxGeometry relative="1" as="geometry" />
        </mxCell>
        <mxCell id="caD48K6P7R1hyJkPbGRi-20" value="" style="edgeStyle=orthogonalEdgeStyle;rounded=0;sketch=1;hachureGap=4;jiggle=2;curveFitting=1;orthogonalLoop=1;jettySize=auto;html=1;fontFamily=Architects Daughter;fontSource=https%3A%2F%2Ffonts.googleapis.com%2Fcss%3Ffamily%3DArchitects%2BDaughter;" edge="1" parent="1" source="caD48K6P7R1hyJkPbGRi-15" target="caD48K6P7R1hyJkPbGRi-19">
          <mxGeometry relative="1" as="geometry" />
        </mxCell>
        <mxCell id="caD48K6P7R1hyJkPbGRi-21" value="YES" style="edgeLabel;html=1;align=center;verticalAlign=middle;resizable=0;points=[];sketch=1;hachureGap=4;jiggle=2;curveFitting=1;fontFamily=Architects Daughter;fontSource=https%3A%2F%2Ffonts.googleapis.com%2Fcss%3Ffamily%3DArchitects%2BDaughter;" vertex="1" connectable="0" parent="caD48K6P7R1hyJkPbGRi-20">
          <mxGeometry x="-0.41" y="-1" relative="1" as="geometry">
            <mxPoint x="14" y="13" as="offset" />
          </mxGeometry>
        </mxCell>
        <mxCell id="caD48K6P7R1hyJkPbGRi-15" value="RA done" style="rhombus;whiteSpace=wrap;html=1;sketch=1;hachureGap=4;jiggle=2;curveFitting=1;fontFamily=Architects Daughter;fontSource=https%3A%2F%2Ffonts.googleapis.com%2Fcss%3Ffamily%3DArchitects%2BDaughter;fillColor=#f8cecc;strokeColor=#b85450;" vertex="1" parent="1">
          <mxGeometry x="597" y="288" width="80" height="80" as="geometry" />
        </mxCell>
        <mxCell id="caD48K6P7R1hyJkPbGRi-16" value="" style="whiteSpace=wrap;html=1;fontFamily=Architects Daughter;sketch=1;hachureGap=4;jiggle=2;curveFitting=1;fontSource=https%3A%2F%2Ffonts.googleapis.com%2Fcss%3Ffamily%3DArchitects%2BDaughter;fillColor=#f8cecc;strokeColor=#b85450;" vertex="1" parent="1">
          <mxGeometry x="776" y="298" width="120" height="60" as="geometry" />
        </mxCell>
        <mxCell id="caD48K6P7R1hyJkPbGRi-18" value="NO" style="text;html=1;align=center;verticalAlign=middle;resizable=0;points=[];autosize=1;strokeColor=none;fillColor=none;fontFamily=Architects Daughter;fontSource=https%3A%2F%2Ffonts.googleapis.com%2Fcss%3Ffamily%3DArchitects%2BDaughter;" vertex="1" parent="1">
          <mxGeometry x="689" y="310" width="34" height="26" as="geometry" />
        </mxCell>
        <mxCell id="caD48K6P7R1hyJkPbGRi-19" value="RA done" style="rhombus;whiteSpace=wrap;html=1;sketch=1;hachureGap=4;jiggle=2;curveFitting=1;fontFamily=Architects Daughter;fontSource=https%3A%2F%2Ffonts.googleapis.com%2Fcss%3Ffamily%3DArchitects%2BDaughter;" vertex="1" parent="1">
          <mxGeometry x="597" y="448" width="80" height="80" as="geometry" />
        </mxCell>
        <mxCell id="caD48K6P7R1hyJkPbGRi-25" value="" style="edgeStyle=orthogonalEdgeStyle;rounded=0;sketch=1;hachureGap=4;jiggle=2;curveFitting=1;orthogonalLoop=1;jettySize=auto;html=1;fontFamily=Architects Daughter;fontSource=https%3A%2F%2Ffonts.googleapis.com%2Fcss%3Ffamily%3DArchitects%2BDaughter;" edge="1" parent="1" source="caD48K6P7R1hyJkPbGRi-23" target="caD48K6P7R1hyJkPbGRi-24">
          <mxGeometry relative="1" as="geometry" />
        </mxCell>
        <mxCell id="caD48K6P7R1hyJkPbGRi-26" value="NO" style="edgeLabel;html=1;align=center;verticalAlign=middle;resizable=0;points=[];sketch=1;hachureGap=4;jiggle=2;curveFitting=1;fontFamily=Architects Daughter;fontSource=https%3A%2F%2Ffonts.googleapis.com%2Fcss%3Ffamily%3DArchitects%2BDaughter;" vertex="1" connectable="0" parent="caD48K6P7R1hyJkPbGRi-25">
          <mxGeometry x="-0.1267" y="2" relative="1" as="geometry">
            <mxPoint x="-4" y="-12" as="offset" />
          </mxGeometry>
        </mxCell>
        <mxCell id="caD48K6P7R1hyJkPbGRi-28" value="" style="edgeStyle=orthogonalEdgeStyle;rounded=0;sketch=1;hachureGap=4;jiggle=2;curveFitting=1;orthogonalLoop=1;jettySize=auto;html=1;fontFamily=Architects Daughter;fontSource=https%3A%2F%2Ffonts.googleapis.com%2Fcss%3Ffamily%3DArchitects%2BDaughter;entryX=0.5;entryY=0;entryDx=0;entryDy=0;" edge="1" parent="1" source="caD48K6P7R1hyJkPbGRi-23" target="caD48K6P7R1hyJkPbGRi-30">
          <mxGeometry relative="1" as="geometry">
            <mxPoint x="430" y="635" as="targetPoint" />
          </mxGeometry>
        </mxCell>
        <mxCell id="caD48K6P7R1hyJkPbGRi-29" value="YES" style="edgeLabel;html=1;align=center;verticalAlign=middle;resizable=0;points=[];sketch=1;hachureGap=4;jiggle=2;curveFitting=1;fontFamily=Architects Daughter;fontSource=https%3A%2F%2Ffonts.googleapis.com%2Fcss%3Ffamily%3DArchitects%2BDaughter;" vertex="1" connectable="0" parent="caD48K6P7R1hyJkPbGRi-28">
          <mxGeometry x="-0.3822" y="2" relative="1" as="geometry">
            <mxPoint x="10" y="-1" as="offset" />
          </mxGeometry>
        </mxCell>
        <mxCell id="caD48K6P7R1hyJkPbGRi-23" value="The client still has his phone" style="rhombus;whiteSpace=wrap;html=1;sketch=1;hachureGap=4;jiggle=2;curveFitting=1;fontFamily=Architects Daughter;fontSource=https%3A%2F%2Ffonts.googleapis.com%2Fcss%3Ffamily%3DArchitects%2BDaughter;" vertex="1" parent="1">
          <mxGeometry x="390" y="465" width="80" height="80" as="geometry" />
        </mxCell>
        <mxCell id="caD48K6P7R1hyJkPbGRi-24" value="" style="whiteSpace=wrap;html=1;fontFamily=Architects Daughter;sketch=1;hachureGap=4;jiggle=2;curveFitting=1;fontSource=https%3A%2F%2Ffonts.googleapis.com%2Fcss%3Ffamily%3DArchitects%2BDaughter;fillColor=#f8cecc;strokeColor=#b85450;" vertex="1" parent="1">
          <mxGeometry x="210" y="475" width="120" height="60" as="geometry" />
        </mxCell>
        <mxCell id="caD48K6P7R1hyJkPbGRi-33" value="" style="edgeStyle=orthogonalEdgeStyle;rounded=0;sketch=1;hachureGap=4;jiggle=2;curveFitting=1;orthogonalLoop=1;jettySize=auto;html=1;fontFamily=Architects Daughter;fontSource=https%3A%2F%2Ffonts.googleapis.com%2Fcss%3Ffamily%3DArchitects%2BDaughter;" edge="1" parent="1" source="caD48K6P7R1hyJkPbGRi-30" target="caD48K6P7R1hyJkPbGRi-32">
          <mxGeometry relative="1" as="geometry" />
        </mxCell>
        <mxCell id="caD48K6P7R1hyJkPbGRi-34" value="NO" style="edgeLabel;html=1;align=center;verticalAlign=middle;resizable=0;points=[];sketch=1;hachureGap=4;jiggle=2;curveFitting=1;fontFamily=Architects Daughter;fontSource=https%3A%2F%2Ffonts.googleapis.com%2Fcss%3Ffamily%3DArchitects%2BDaughter;" vertex="1" connectable="0" parent="caD48K6P7R1hyJkPbGRi-33">
          <mxGeometry x="-0.2933" relative="1" as="geometry">
            <mxPoint x="-6" y="-12" as="offset" />
          </mxGeometry>
        </mxCell>
        <mxCell id="caD48K6P7R1hyJkPbGRi-36" value="" style="edgeStyle=orthogonalEdgeStyle;rounded=0;sketch=1;hachureGap=4;jiggle=2;curveFitting=1;orthogonalLoop=1;jettySize=auto;html=1;fontFamily=Architects Daughter;fontSource=https%3A%2F%2Ffonts.googleapis.com%2Fcss%3Ffamily%3DArchitects%2BDaughter;" edge="1" parent="1" source="caD48K6P7R1hyJkPbGRi-30" target="caD48K6P7R1hyJkPbGRi-35">
          <mxGeometry relative="1" as="geometry" />
        </mxCell>
        <mxCell id="caD48K6P7R1hyJkPbGRi-37" value="YES" style="edgeLabel;html=1;align=center;verticalAlign=middle;resizable=0;points=[];sketch=1;hachureGap=4;jiggle=2;curveFitting=1;fontFamily=Architects Daughter;fontSource=https%3A%2F%2Ffonts.googleapis.com%2Fcss%3Ffamily%3DArchitects%2BDaughter;" vertex="1" connectable="0" parent="caD48K6P7R1hyJkPbGRi-36">
          <mxGeometry x="-0.125" y="3" relative="1" as="geometry">
            <mxPoint x="12" y="-1" as="offset" />
          </mxGeometry>
        </mxCell>
        <mxCell id="caD48K6P7R1hyJkPbGRi-30" value="STI price lower than FTI price" style="rhombus;whiteSpace=wrap;html=1;sketch=1;hachureGap=4;jiggle=2;curveFitting=1;fontFamily=Architects Daughter;fontSource=https%3A%2F%2Ffonts.googleapis.com%2Fcss%3Ffamily%3DArchitects%2BDaughter;" vertex="1" parent="1">
          <mxGeometry x="392" y="647" width="80" height="80" as="geometry" />
        </mxCell>
        <mxCell id="caD48K6P7R1hyJkPbGRi-32" value="WE SHOULD PUSH TH USER TO KEEP HIS FTI &amp;lt;= IF IT IS THE SAME USER" style="whiteSpace=wrap;html=1;fontFamily=Architects Daughter;sketch=1;hachureGap=4;jiggle=2;curveFitting=1;fontSource=https%3A%2F%2Ffonts.googleapis.com%2Fcss%3Ffamily%3DArchitects%2BDaughter;fillColor=#f8cecc;strokeColor=#b85450;" vertex="1" parent="1">
          <mxGeometry x="86" y="657" width="246" height="60" as="geometry" />
        </mxCell>
        <mxCell id="caD48K6P7R1hyJkPbGRi-39" value="" style="edgeStyle=orthogonalEdgeStyle;rounded=0;sketch=1;hachureGap=4;jiggle=2;curveFitting=1;orthogonalLoop=1;jettySize=auto;html=1;fontFamily=Architects Daughter;fontSource=https%3A%2F%2Ffonts.googleapis.com%2Fcss%3Ffamily%3DArchitects%2BDaughter;" edge="1" parent="1" source="caD48K6P7R1hyJkPbGRi-35" target="caD48K6P7R1hyJkPbGRi-38">
          <mxGeometry relative="1" as="geometry">
            <mxPoint x="774" y="834" as="sourcePoint" />
          </mxGeometry>
        </mxCell>
        <mxCell id="caD48K6P7R1hyJkPbGRi-40" value="NO" style="edgeLabel;html=1;align=center;verticalAlign=middle;resizable=0;points=[];sketch=1;hachureGap=4;jiggle=2;curveFitting=1;fontFamily=Architects Daughter;fontSource=https%3A%2F%2Ffonts.googleapis.com%2Fcss%3Ffamily%3DArchitects%2BDaughter;" vertex="1" connectable="0" parent="caD48K6P7R1hyJkPbGRi-39">
          <mxGeometry x="0.24" y="-3" relative="1" as="geometry">
            <mxPoint x="7" y="-11" as="offset" />
          </mxGeometry>
        </mxCell>
        <mxCell id="caD48K6P7R1hyJkPbGRi-42" value="" style="edgeStyle=orthogonalEdgeStyle;rounded=0;sketch=1;hachureGap=4;jiggle=2;curveFitting=1;orthogonalLoop=1;jettySize=auto;html=1;fontFamily=Architects Daughter;fontSource=https%3A%2F%2Ffonts.googleapis.com%2Fcss%3Ffamily%3DArchitects%2BDaughter;" edge="1" parent="1" source="caD48K6P7R1hyJkPbGRi-35" target="caD48K6P7R1hyJkPbGRi-41">
          <mxGeometry relative="1" as="geometry" />
        </mxCell>
        <mxCell id="caD48K6P7R1hyJkPbGRi-43" value="YES" style="edgeLabel;html=1;align=center;verticalAlign=middle;resizable=0;points=[];sketch=1;hachureGap=4;jiggle=2;curveFitting=1;fontFamily=Architects Daughter;fontSource=https%3A%2F%2Ffonts.googleapis.com%2Fcss%3Ffamily%3DArchitects%2BDaughter;" vertex="1" connectable="0" parent="caD48K6P7R1hyJkPbGRi-42">
          <mxGeometry x="-0.2978" y="3" relative="1" as="geometry">
            <mxPoint x="11" as="offset" />
          </mxGeometry>
        </mxCell>
        <mxCell id="caD48K6P7R1hyJkPbGRi-35" value="FTI contract active" style="rhombus;whiteSpace=wrap;html=1;sketch=1;hachureGap=4;jiggle=2;curveFitting=1;fontFamily=Architects Daughter;fontSource=https%3A%2F%2Ffonts.googleapis.com%2Fcss%3Ffamily%3DArchitects%2BDaughter;" vertex="1" parent="1">
          <mxGeometry x="392" y="807" width="80" height="80" as="geometry" />
        </mxCell>
        <mxCell id="caD48K6P7R1hyJkPbGRi-38" value="1/ REACTIVAT FTI CONTRACT&lt;br&gt;2/ CANCEL FTI" style="whiteSpace=wrap;html=1;fontFamily=Architects Daughter;sketch=1;hachureGap=4;jiggle=2;curveFitting=1;fontSource=https%3A%2F%2Ffonts.googleapis.com%2Fcss%3Ffamily%3DArchitects%2BDaughter;fillColor=#d5e8d4;strokeColor=#82b366;align=left;" vertex="1" parent="1">
          <mxGeometry x="600" y="817" width="204" height="60" as="geometry" />
        </mxCell>
        <mxCell id="caD48K6P7R1hyJkPbGRi-41" value="" style="whiteSpace=wrap;html=1;fontFamily=Architects Daughter;sketch=1;hachureGap=4;jiggle=2;curveFitting=1;fontSource=https%3A%2F%2Ffonts.googleapis.com%2Fcss%3Ffamily%3DArchitects%2BDaughter;" vertex="1" parent="1">
          <mxGeometry x="372" y="977" width="120" height="60" as="geometry" />
        </mxCell>
        <mxCell id="caD48K6P7R1hyJkPbGRi-45" value="" style="edgeStyle=orthogonalEdgeStyle;rounded=0;sketch=1;hachureGap=4;jiggle=2;curveFitting=1;orthogonalLoop=1;jettySize=auto;html=1;fontFamily=Architects Daughter;fontSource=https%3A%2F%2Ffonts.googleapis.com%2Fcss%3Ffamily%3DArchitects%2BDaughter;" edge="1" parent="1" source="caD48K6P7R1hyJkPbGRi-44" target="caD48K6P7R1hyJkPbGRi-2">
          <mxGeometry relative="1" as="geometry" />
        </mxCell>
        <mxCell id="caD48K6P7R1hyJkPbGRi-46" value="YES" style="edgeLabel;html=1;align=center;verticalAlign=middle;resizable=0;points=[];sketch=1;hachureGap=4;jiggle=2;curveFitting=1;fontFamily=Architects Daughter;fontSource=https%3A%2F%2Ffonts.googleapis.com%2Fcss%3Ffamily%3DArchitects%2BDaughter;" vertex="1" connectable="0" parent="caD48K6P7R1hyJkPbGRi-45">
          <mxGeometry x="-0.0759" relative="1" as="geometry">
            <mxPoint x="11" y="-2" as="offset" />
          </mxGeometry>
        </mxCell>
        <mxCell id="caD48K6P7R1hyJkPbGRi-50" style="edgeStyle=orthogonalEdgeStyle;rounded=0;sketch=1;hachureGap=4;jiggle=2;curveFitting=1;orthogonalLoop=1;jettySize=auto;html=1;fontFamily=Architects Daughter;fontSource=https%3A%2F%2Ffonts.googleapis.com%2Fcss%3Ffamily%3DArchitects%2BDaughter;entryX=0;entryY=0.5;entryDx=0;entryDy=0;exitX=0;exitY=0.5;exitDx=0;exitDy=0;" edge="1" parent="1" source="caD48K6P7R1hyJkPbGRi-44" target="caD48K6P7R1hyJkPbGRi-35">
          <mxGeometry relative="1" as="geometry">
            <mxPoint x="-100" y="213" as="sourcePoint" />
            <mxPoint x="26" y="828" as="targetPoint" />
            <Array as="points">
              <mxPoint x="-24" y="192" />
              <mxPoint x="-24" y="845" />
              <mxPoint x="392" y="845" />
            </Array>
          </mxGeometry>
        </mxCell>
        <mxCell id="caD48K6P7R1hyJkPbGRi-52" value="NO" style="edgeLabel;html=1;align=center;verticalAlign=middle;resizable=0;points=[];sketch=1;hachureGap=4;jiggle=2;curveFitting=1;fontFamily=Architects Daughter;fontSource=https%3A%2F%2Ffonts.googleapis.com%2Fcss%3Ffamily%3DArchitects%2BDaughter;" vertex="1" connectable="0" parent="caD48K6P7R1hyJkPbGRi-50">
          <mxGeometry x="-0.7679" y="5" relative="1" as="geometry">
            <mxPoint as="offset" />
          </mxGeometry>
        </mxCell>
        <mxCell id="caD48K6P7R1hyJkPbGRi-44" value="Same User" style="rhombus;whiteSpace=wrap;html=1;sketch=1;hachureGap=4;jiggle=2;curveFitting=1;fontFamily=Architects Daughter;fontSource=https%3A%2F%2Ffonts.googleapis.com%2Fcss%3Ffamily%3DArchitects%2BDaughter;" vertex="1" parent="1">
          <mxGeometry x="226" y="152" width="80" height="80" as="geometry" />
        </mxCell>
      </root>
    </mxGraphModel>
  </diagram>
</mxfile>
